<svg width="23" height="24" viewBox="0 0 23 24" fill="none" xmlns="http://www.w3.org/2000/svg">
<path d="M2.875 12C2.875 13.1819 3.09809 14.3522 3.53154 15.4442C3.96499 16.5361 4.6003 17.5282 5.4012 18.364C6.20211 19.1997 7.15292 19.8626 8.19936 20.3149C9.24579 20.7672 10.3673 21 11.5 21C12.6327 21 13.7542 20.7672 14.8006 20.3149C15.8471 19.8626 16.7979 19.1997 17.5988 18.364C18.3997 17.5282 19.035 16.5361 19.4685 15.4442C19.9019 14.3522 20.125 13.1819 20.125 12C20.125 10.8181 19.9019 9.64778 19.4685 8.55585C19.035 7.46392 18.3997 6.47177 17.5988 5.63604C16.7979 4.80031 15.8471 4.13738 14.8006 3.68508C13.7542 3.23279 12.6327 3 11.5 3C10.3673 3 9.24579 3.23279 8.19936 3.68508C7.15292 4.13738 6.20211 4.80031 5.4012 5.63604C4.6003 6.47177 3.96499 7.46392 3.53154 8.55585C3.09809 9.64778 2.875 10.8181 2.875 12Z" stroke="#404252" stroke-width="1.25" stroke-linecap="round" stroke-linejoin="round"/>
<path d="M8.625 10C8.625 10.7956 8.9279 11.5587 9.46707 12.1213C10.0062 12.6839 10.7375 13 11.5 13C12.2625 13 12.9938 12.6839 13.5329 12.1213C14.0721 11.5587 14.375 10.7956 14.375 10C14.375 9.20435 14.0721 8.44129 13.5329 7.87868C12.9938 7.31607 12.2625 7 11.5 7C10.7375 7 10.0062 7.31607 9.46707 7.87868C8.9279 8.44129 8.625 9.20435 8.625 10Z" stroke="#404252" stroke-width="1.25" stroke-linecap="round" stroke-linejoin="round"/>
<path d="M5.91101 18.849C6.14821 18.0252 6.63356 17.3032 7.29508 16.79C7.9566 16.2768 8.75903 15.9997 9.58334 16H13.4167C14.2421 15.9997 15.0455 16.2774 15.7075 16.7918C16.3695 17.3062 16.8547 18.0298 17.0909 18.855" stroke="#404252" stroke-width="1.25" stroke-linecap="round" stroke-linejoin="round"/>
</svg>
