<svg width="24" height="24" viewBox="0 0 24 24" fill="none" xmlns="http://www.w3.org/2000/svg">
<path d="M8.56002 3.69C7.4681 4.14199 6.47588 4.8046 5.64001 5.64" stroke="#404252" stroke-width="1.25" stroke-linecap="round" stroke-linejoin="round"/>
<path d="M3.69 8.56C3.23656 9.6503 3.0021 10.8192 3 12" stroke="#404252" stroke-width="1.25" stroke-linecap="round" stroke-linejoin="round"/>
<path d="M3.69 15.44C4.14199 16.5319 4.8046 17.5241 5.64 18.36" stroke="#404252" stroke-width="1.25" stroke-linecap="round" stroke-linejoin="round"/>
<path d="M8.56 20.31C9.6503 20.7634 10.8192 20.9979 12 21" stroke="#404252" stroke-width="1.25" stroke-linecap="round" stroke-linejoin="round"/>
<path d="M15.44 20.31C16.5319 19.858 17.5241 19.1954 18.36 18.36" stroke="#404252" stroke-width="1.25" stroke-linecap="round" stroke-linejoin="round"/>
<path d="M20.31 15.44C20.7634 14.3497 20.9979 13.1808 21 12" stroke="#404252" stroke-width="1.25" stroke-linecap="round" stroke-linejoin="round"/>
<path d="M20.31 8.56002C19.858 7.4681 19.1954 6.47588 18.36 5.64001" stroke="#404252" stroke-width="1.25" stroke-linecap="round" stroke-linejoin="round"/>
<path d="M15.44 3.69C14.3497 3.23656 13.1808 3.0021 12 3" stroke="#404252" stroke-width="1.25" stroke-linecap="round" stroke-linejoin="round"/>
</svg>
